<?xml version="1.0" encoding="UTF-8"?>
<svg version="1.1" xmlns="http://www.w3.org/2000/svg" width="1024" height="1024">
<path d="M0 0 C337.92 0 675.84 0 1024 0 C1024 337.92 1024 675.84 1024 1024 C686.08 1024 348.16 1024 0 1024 C0 686.08 0 348.16 0 0 Z " fill="#0083DD" transform="translate(0,0)"/>
<path d="M0 0 C26.40434031 21.97276338 44.03791837 52.42565961 47.83520508 86.86132812 C47.94523062 88.69325332 48.02587569 90.52706108 48.08520508 92.36132812 C48.16254883 94.19824219 48.16254883 94.19824219 48.24145508 96.07226562 C49.2431856 130.4856252 37.17934654 163.75203808 13.52099609 188.83203125 C-9.64639493 212.87650234 -41.88627662 227.96230236 -75.48364258 228.59106445 C-88.44670515 228.68680517 -101.18879008 227.96792186 -113.58276367 223.84960938 C-119.39566992 222.6325017 -123.85959 225.76139919 -128.72729492 228.54882812 C-129.50065186 228.98517578 -130.27400879 229.42152344 -131.07080078 229.87109375 C-137.73627224 233.64887103 -144.35721979 237.50472935 -150.97729492 241.36132812 C-152.50229614 242.24836426 -152.50229614 242.24836426 -154.05810547 243.15332031 C-158.74365352 245.88796764 -163.4058953 248.6476742 -168.01245117 251.51367188 C-168.78387451 251.98740234 -169.55529785 252.46113281 -170.35009766 252.94921875 C-171.76346717 253.82034225 -173.16869055 254.70489031 -174.56347656 255.60546875 C-177.68441774 257.51761455 -179.55872239 258.37671911 -183.25854492 258.21679688 C-185.91479492 257.36132812 -185.91479492 257.36132812 -187.78979492 255.73632812 C-191.00438519 248.94997088 -187.88631238 240.13391363 -186.50854492 233.16601562 C-186.13551698 231.23239105 -185.76249396 229.29876551 -185.38976288 227.36508369 C-184.86893638 224.67113319 -184.34237312 221.97831801 -183.81561279 219.28552246 C-182.89225059 214.56480329 -181.9723165 209.84343519 -181.06091309 205.12039185 C-180.57584433 202.60979491 -180.08633548 200.10005087 -179.59191895 197.59127808 C-179.37169067 196.45304596 -179.1514624 195.31481384 -178.92456055 194.14208984 C-178.72914673 193.14394257 -178.53373291 192.14579529 -178.33239746 191.11740112 C-177.46286837 185.86558419 -177.46286837 185.86558419 -179.38354492 181.14257812 C-180.38901367 180.01335937 -180.38901367 180.01335937 -181.41479492 178.86132812 C-203.35209686 152.66811223 -210.52436453 119.81037677 -208.91479492 86.36132812 C-208.40165075 80.58702118 -207.31592246 74.98114353 -205.91479492 69.36132812 C-205.75382324 68.71180176 -205.59285156 68.06227539 -205.42700195 67.39306641 C-197.31404951 36.02454231 -176.97896934 7.00359053 -148.91479492 -9.63867188 C-102.01195887 -36.46955189 -42.7363926 -34.35824751 0 0 Z " fill="#FEFEFE" transform="translate(726.914794921875,277.638671875)"/>
<path d="M0 0 C3.16104299 1.16945322 6.11394371 2.69615726 9.10546875 4.2421875 C9.98415115 4.68458771 10.86283356 5.12698792 11.7681427 5.58279419 C14.58041205 7.00236429 17.38384036 8.43851386 20.1875 9.875 C22.02224761 10.80314928 23.85752987 11.73024249 25.69335938 12.65625 C35.2984328 17.51416788 44.84388943 22.47937492 54.35868835 27.51144409 C61.18689094 31.11610377 68.07882065 34.57688232 75 38 C83.27477942 42.11781619 91.54474855 46.24493423 99.75 50.5 C100.48089844 50.87253906 101.21179688 51.24507813 101.96484375 51.62890625 C111.07723875 56.39880907 119.3408145 62.14703399 123.38489974 71.95227253 C124.54801577 75.82439678 124.4001567 79.71280357 124.36076355 83.72532654 C124.36332682 84.68685876 124.3658901 85.64839099 124.36853105 86.63906056 C124.37346058 89.85126142 124.35698944 93.06298913 124.34057617 96.27514648 C124.33972972 98.58156829 124.34020539 100.8879909 124.34190369 103.19441223 C124.34276436 109.45006745 124.3251267 115.70555008 124.30418181 121.96116519 C124.28542717 128.50079902 124.28366552 135.04043681 124.28010559 141.58009338 C124.2723406 152.55464673 124.25310269 163.52913961 124.22631836 174.50366211 C124.19876414 185.80541671 124.17753724 197.10715412 124.16479492 208.40893555 C124.16361267 209.4546124 124.16361267 209.4546124 124.16240653 210.52141403 C124.1584913 214.01879216 124.1547002 217.5161704 124.15097082 221.01354873 C124.11989132 250.00907362 124.06684623 279.00453596 124 308 C122.58026147 307.53560357 121.16128724 307.06887022 119.74263 306.60118103 C118.9523557 306.34152526 118.16208139 306.08186949 117.34785938 305.81434536 C113.8839156 304.61289072 110.56599105 303.14499655 107.23046875 301.62890625 C106.16602539 301.15185242 106.16602539 301.15185242 105.08007812 300.66516113 C103.56613802 299.98638196 102.0530005 299.30581026 100.5406189 298.62356567 C96.50024154 296.80168335 92.45313841 294.99486262 88.40625 293.1875 C87.59616989 292.82543961 86.78608978 292.46337921 85.95146179 292.09034729 C79.05803477 289.01434933 72.13327402 286.01863472 65.1875 283.0625 C52.0896707 277.48540979 39.0382115 271.80512651 25.99780273 266.09521484 C19.00082335 263.0338991 12.00439289 259.97987684 4.94921875 257.0546875 C3.96107178 256.64307373 2.9729248 256.23145996 1.95483398 255.80737305 C0.22286221 255.09029077 -1.5130117 254.38251853 -3.25366211 253.68676758 C-9.95174517 250.90915603 -9.95174517 250.90915603 -12 247 C-12.44661897 243.8023056 -12.40868249 240.6276097 -12.38768005 237.40333557 C-12.39306559 236.41930958 -12.39845113 235.43528359 -12.40399987 234.42143863 C-12.41833934 231.11489867 -12.41116086 227.80875565 -12.40405273 224.50219727 C-12.40975316 222.13536252 -12.41671613 219.76853052 -12.42485046 217.40170288 C-12.44096423 211.63466324 -12.44287516 205.86774867 -12.43763756 200.10069127 C-12.43359758 195.41355626 -12.43503736 190.72645346 -12.44038582 186.03931999 C-12.44113424 185.37244351 -12.44188266 184.70556702 -12.44265376 184.01848216 C-12.44418523 182.66375994 -12.44572357 181.30903774 -12.44726873 179.95431554 C-12.46099964 167.24731128 -12.45555198 154.54036858 -12.44408352 141.83336573 C-12.43415074 130.2068888 -12.44709146 118.580571 -12.47101771 106.95411862 C-12.49539702 95.01763027 -12.50501946 83.08121608 -12.49836498 71.14470333 C-12.49487012 64.44262403 -12.49712234 57.74066714 -12.51461601 51.03860664 C-12.53004479 44.73733641 -12.52617459 38.43637078 -12.50731087 32.13511276 C-12.50361375 29.81996533 -12.50676593 27.50479554 -12.51719666 25.18966866 C-12.53033104 22.03397374 -12.51892548 18.87929849 -12.50120544 15.72364807 C-12.51081045 14.80322222 -12.52041546 13.88279637 -12.53031152 12.93447882 C-12.48188556 8.75525139 -12.35717825 6.57056851 -10.09367466 2.954772 C-6.69451409 -0.21887481 -4.61208836 -0.43874832 0 0 Z " fill="#FEFEFE" transform="translate(297,228)"/>
<path d="M0 0 C2.80513641 2.05213519 4.63866927 3.72925259 5.60839844 7.13964844 C6.42914335 13.00381133 6.63613104 19.27045896 5 25 C1.7802807 28.81688516 -1.86686858 30.86932086 -6.25146484 33.06103516 C-31.26897442 46.49545876 -50.05941704 78.199592 -58.18359375 104.39135742 C-58.81844979 106.58730693 -59.41437292 108.79045543 -60 111 C-60.20592773 111.73089844 -60.41185547 112.46179688 -60.62402344 113.21484375 C-63.68193522 124.36438624 -64.36568816 135.3553906 -64.375 146.875 C-64.37677246 148.15785889 -64.37854492 149.44071777 -64.38037109 150.76245117 C-64.23759616 162.94774261 -62.76370548 174.67873849 -59.3125 186.375 C-59.05194824 187.26711182 -58.79139648 188.15922363 -58.52294922 189.07836914 C-54.43847546 202.6162085 -48.5881519 218.36942734 -39.12329102 229.13452148 C-36.03823033 232.82382959 -34.05879973 235.43322741 -33.87451172 240.34375 C-34.35886903 244.07223397 -35.07954635 247.65228165 -35.9375 251.3125 C-36.19080078 252.56095703 -36.44410156 253.80941406 -36.70507812 255.09570312 C-39.62597654 269.0994963 -39.62597654 269.0994963 -43.34277344 271.53540039 C-44.33825195 271.96844482 -45.33373047 272.40148926 -46.359375 272.84765625 C-47.51622803 273.36094482 -48.67308105 273.8742334 -49.86499023 274.40307617 C-51.15983434 274.95658989 -52.45484307 275.50971863 -53.75 276.0625 C-55.09837399 276.65260078 -56.44609445 277.24419676 -57.79321289 277.8371582 C-60.80648301 279.15926448 -63.82457171 280.46955295 -66.84619141 281.77246094 C-72.57781672 284.24528815 -78.2942683 286.75243022 -84.01171875 289.2578125 C-92.08548025 292.7899792 -100.16133817 296.3172804 -108.24609375 299.82421875 C-109.11272141 300.20180328 -109.97934906 300.57938782 -110.87223816 300.96841431 C-112.10421684 301.5016481 -112.10421684 301.5016481 -113.36108398 302.0456543 C-114.0670018 302.35206345 -114.77291962 302.6584726 -115.50022888 302.97416687 C-117.70654762 303.8795757 -119.92243716 304.72965165 -122.15623569 305.56411457 C-122.87617917 305.83329553 -123.59612264 306.10247649 -124.33788258 306.37981445 C-125.1606307 306.6868063 -125.1606307 306.6868063 -126 307 C-126.09128361 277.19859804 -126.16205584 247.3972008 -126.20426132 217.59568912 C-126.20926404 214.07599955 -126.21444134 210.55631025 -126.21972656 207.03662109 C-126.2207758 206.33592511 -126.22182505 205.63522912 -126.22290608 204.91329992 C-126.2403033 193.57314063 -126.2718372 182.2330626 -126.30861118 170.89295149 C-126.34603968 159.25378847 -126.36794054 147.61467279 -126.37635398 135.97545242 C-126.38156987 129.43918132 -126.39383387 122.90309441 -126.42292023 116.36688232 C-126.4500777 110.21425319 -126.45844416 104.06188405 -126.45243073 97.90920067 C-126.4535308 95.65174128 -126.46148244 93.39427316 -126.4768219 91.13686562 C-126.49675446 88.05210687 -126.49192669 84.96832682 -126.48101807 81.88354492 C-126.49266943 80.9924748 -126.5043208 80.10140469 -126.51632524 79.18333244 C-126.44613704 71.82867753 -124.20668126 65.62679221 -118.91015625 60.35546875 C-114.62207417 56.33375546 -109.67988826 53.88231554 -104.4375 51.3125 C-102.36749563 50.26628721 -100.29850844 49.21805977 -98.23046875 48.16796875 C-97.18681152 47.64122559 -96.1431543 47.11448242 -95.06787109 46.57177734 C-90.40888754 44.1848176 -85.8308263 41.65780835 -81.25 39.125 C-73.06457142 34.62119793 -64.8049805 30.27905126 -56.5 26 C-47.98883758 21.61397952 -39.52365249 17.16054721 -31.125 12.5625 C-29.77317627 11.82531738 -29.77317627 11.82531738 -28.39404297 11.07324219 C-24.5818503 8.98868309 -20.78479277 6.88781995 -17.03125 4.69921875 C-6.41660592 -1.37498698 -6.41660592 -1.37498698 0 0 Z " fill="#FEFEFE" transform="translate(567,229)"/>
<path d="M0 0 C3.49406769 1.66762322 4.82670681 2.74006022 7 6 C7.19320098 8.88941102 7.26773592 11.68227774 7.2515564 14.57200623 C7.25452654 15.4578781 7.25749667 16.34374997 7.26055682 17.25646645 C7.26821975 20.23671647 7.26169343 23.21677074 7.25537109 26.19702148 C7.25811988 28.32887913 7.26179909 30.46073575 7.26634216 32.59259033 C7.27446523 37.18922241 7.27661986 41.78580582 7.27439499 46.38244438 C7.27156813 53.64669159 7.28589001 60.91084105 7.30337524 68.17506409 C7.35046354 88.83357271 7.37434917 109.49207488 7.38085938 130.15063477 C7.38460526 141.55564431 7.40259671 152.96054351 7.43595374 164.36550575 C7.45621853 171.59085675 7.45851317 178.81592413 7.44767356 186.04129207 C7.44507293 190.53204322 7.45903873 195.02262803 7.47775459 199.51333618 C7.48309294 201.59991412 7.48155193 203.68652238 7.47271919 205.77308846 C7.46165253 208.61612975 7.47496605 211.45803863 7.49447632 214.30101013 C7.48535166 215.13164819 7.476227 215.96228624 7.46682584 216.81809515 C7.5143942 220.36684491 7.65607311 222.53445916 9.79585648 225.43087864 C11.78548813 226.84728982 13.51145302 227.90340657 15.77182007 228.80493164 C16.5080661 229.10441208 17.24431213 229.40389252 18.00286865 229.71244812 C18.80162415 230.0251918 19.60037964 230.33793549 20.42333984 230.66015625 C21.27306366 231.00234695 22.12278748 231.34453766 22.9982605 231.69709778 C25.81533127 232.82871545 28.63800817 233.94558632 31.4609375 235.0625 C33.44637412 235.85668594 35.43144496 236.65178688 37.41616821 237.44775391 C42.66507376 239.54995762 47.91883393 241.63975366 53.17370605 243.72698975 C58.40387657 245.80679273 63.62949483 247.89796125 68.85546875 249.98828125 C82.9369199 255.61738407 97.02022041 261.24206161 111.1224041 266.81906128 C113.90337685 267.91934731 116.68313229 269.02268613 119.46269608 270.12652588 C121.2668161 270.84141876 123.07286207 271.55144555 124.8789978 272.26123047 C142.96308759 279.44463139 142.96308759 279.44463139 146 284 C146.58466608 288.42675745 146.27147208 290.51835598 144.0625 294.4375 C140.40350421 297.49910872 139.08326436 297.46152487 134.53449059 297.3191452 C129.94299939 296.74098074 125.88114946 295.01112984 121.63208008 293.24316406 C120.63532257 292.84303604 119.63856506 292.44290802 118.61160278 292.03065491 C115.32476562 290.70697792 112.04735458 289.36145044 108.76953125 288.015625 C106.45585416 287.07892414 104.14160883 286.14362574 101.826828 285.20965576 C96.34390227 282.99355899 90.86668923 280.76374808 85.39214677 278.52705073 C78.67765548 275.784614 71.95512021 273.06209168 65.23242188 270.33984375 C58.17352483 267.480806 51.11574198 264.61919033 44.06399536 261.74255371 C34.41719505 257.80847376 24.77066074 253.88179516 15.06005859 250.10742188 C14.33605582 249.82456203 13.61205305 249.54170219 12.8661108 249.25027084 C9.68780518 248.0086325 6.50697713 246.77848421 3.31465149 245.57305908 C-3.85880487 242.78088698 -7.69486651 240.45770024 -12 234 C-12.19871029 230.97539408 -12.27813454 228.04250613 -12.26742554 225.01712036 C-12.27195665 224.08703498 -12.27648776 223.15694959 -12.28115618 222.1986798 C-12.29385977 219.06876399 -12.29217598 215.93902085 -12.29052734 212.80908203 C-12.29650887 210.57047297 -12.30331354 208.33186598 -12.31088257 206.09326172 C-12.32858789 200.00237783 -12.33323985 193.91155008 -12.33451414 187.82064295 C-12.33641043 182.7409467 -12.34376484 177.66126361 -12.35085833 172.58157241 C-12.36622544 161.28465923 -12.3721947 149.98777264 -12.37084763 138.69085218 C-12.37076772 138.01282702 -12.3706878 137.33480185 -12.37060547 136.63623047 C-12.37052371 135.95737836 -12.37044195 135.27852625 -12.37035771 134.57910286 C-12.36954475 123.57658456 -12.38868384 112.57420314 -12.4168822 101.57172443 C-12.44560104 90.27712447 -12.45905665 78.98258925 -12.45769465 67.68794525 C-12.45718396 61.3457762 -12.46292606 55.00376201 -12.48405075 48.66162491 C-12.50337243 42.69771472 -12.50359912 36.73410808 -12.48901749 30.77018738 C-12.48692075 28.57920261 -12.49168141 26.38819915 -12.5037384 24.19724655 C-12.51911437 21.21008657 -12.50993313 18.22398323 -12.49447632 15.23684692 C-12.50476344 14.36632128 -12.51505057 13.49579563 -12.52564943 12.59889042 C-12.47901129 8.53057768 -12.31833805 6.50355427 -10.09409523 2.98519707 C-6.72996046 -0.20399432 -4.58482307 -0.35959397 0 0 Z " fill="#FDFEFE" transform="translate(257,262)"/>
<path d="M0 0 C0.9071022 -0.00570007 1.81420441 -0.01140015 2.74879456 -0.01727295 C4.67813953 -0.02674517 6.60750084 -0.0332657 8.53686523 -0.03710938 C11.46042233 -0.04673188 14.38325126 -0.07769856 17.30664062 -0.109375 C19.18358959 -0.11591332 21.06054358 -0.12116052 22.9375 -0.125 C24.23342323 -0.1435202 24.23342323 -0.1435202 25.55552673 -0.16241455 C35.50000913 -0.12675344 45.36459374 2.57385464 52.6015625 9.71875 C58.08876226 16.05382611 58.67617466 21.26287929 58.44921875 29.48828125 C57.78160546 35.96685514 55.08773204 39.28040047 50.50390625 43.640625 C48.26855665 45.07354141 46.6719176 45.81712332 44.06640625 46.203125 C44.06640625 46.863125 44.06640625 47.523125 44.06640625 48.203125 C44.72640625 48.244375 45.38640625 48.285625 46.06640625 48.328125 C52.4064178 50.17729504 56.82815757 54.11519195 60.06640625 59.828125 C63.35820892 67.25978797 63.16460881 74.79905985 60.62890625 82.453125 C57.13765079 90.04599527 51.13446151 94.68826954 43.44140625 97.640625 C36.27446206 100.04036757 29.1500782 100.35406097 21.66796875 100.3359375 C20.79240326 100.33689423 19.91683777 100.33785095 19.01473999 100.33883667 C17.17763191 100.3395135 15.34052138 100.33769408 13.50341797 100.33349609 C10.67930835 100.32810189 7.85535497 100.33347764 5.03125 100.33984375 C3.24348923 100.33918364 1.45572856 100.33790387 -0.33203125 100.3359375 C-1.60377701 100.33897385 -1.60377701 100.33897385 -2.9012146 100.34207153 C-8.81861733 100.31810142 -8.81861733 100.31810142 -9.93359375 99.203125 C-10.03423574 96.16446739 -10.06973965 93.1484977 -10.06298828 90.109375 C-10.0647406 89.15498535 -10.06649292 88.2005957 -10.06829834 87.21728516 C-10.07271862 84.04588023 -10.06977825 80.87453055 -10.06640625 77.703125 C-10.06707924 75.50976552 -10.06804922 73.3164061 -10.06930542 71.12304688 C-10.07078263 66.51952405 -10.06862709 61.91602058 -10.06396484 57.3125 C-10.05826755 51.39707905 -10.06154643 45.48170346 -10.06753731 39.56628418 C-10.07114229 35.03515274 -10.07000462 30.50403215 -10.06740952 25.97290039 C-10.06674007 23.79109695 -10.06756927 21.60929254 -10.06988907 19.42749023 C-10.07241457 16.3839251 -10.06857645 13.34043454 -10.06298828 10.296875 C-10.06501251 9.38566895 -10.06703674 8.47446289 -10.06912231 7.53564453 C-10.03952307 -1.11917422 -7.87132319 0.03792045 0 0 Z " fill="#FDFEFE" transform="translate(522.93359375,641.796875)"/>
<path d="M0 0 C0.78955078 -0.01224609 1.57910156 -0.02449219 2.39257812 -0.03710938 C4.45057435 -0.04237279 6.50812009 0.06543715 8.5625 0.1875 C10.5625 2.1875 10.5625 2.1875 10.81138897 3.99253941 C10.8108442 4.72683139 10.81029943 5.46112337 10.80973816 6.21766663 C10.81393265 7.0603862 10.81812714 7.90310577 10.82244873 8.7713623 C10.81682922 9.69767456 10.81120972 10.62398682 10.80541992 11.57836914 C10.80731827 12.55241196 10.80921661 13.52645477 10.81117249 14.53001404 C10.81488788 17.76097573 10.8041659 20.99171441 10.79296875 24.22265625 C10.79177736 26.45942661 10.7913237 28.69619748 10.7915802 30.93296814 C10.79001406 35.62469608 10.78171385 40.31634786 10.76831055 45.00805664 C10.75131074 51.03667533 10.7474964 57.06521029 10.74825573 63.09385014 C10.74798445 67.71334133 10.74251026 72.33281405 10.73525429 76.95229912 C10.7320614 79.17596738 10.73009877 81.39963775 10.72936058 83.62330818 C10.72720412 86.7242506 10.71847528 89.8251023 10.70776367 92.92602539 C10.70821686 93.85436188 10.70867004 94.78269836 10.70913696 95.73916626 C10.67697382 102.07302618 10.67697382 102.07302618 9.5625 103.1875 C8.21982587 103.27381874 6.87275678 103.29456473 5.52734375 103.28515625 C4.71845703 103.28193359 3.90957031 103.27871094 3.07617188 103.27539062 C2.22603516 103.26701172 1.37589844 103.25863281 0.5 103.25 C-0.35400391 103.24548828 -1.20800781 103.24097656 -2.08789062 103.23632812 C-4.20445663 103.22450373 -6.32098685 103.20656769 -8.4375 103.1875 C-9.0975 101.2075 -9.7575 99.2275 -10.4375 97.1875 C-10.93378906 97.59742188 -11.43007813 98.00734375 -11.94140625 98.4296875 C-19.60339175 104.50693596 -26.72424581 106.20719559 -36.4375 105.1875 C-44.53991171 103.44575707 -50.59506996 99.98447096 -55.4375 93.1875 C-62.11596997 80.34685075 -64.16863454 64.57081648 -59.8125 50.5625 C-56.09479589 41.23562828 -51.25167478 34.61274238 -42.23828125 30.08203125 C-38.5524447 28.90482544 -35.01961645 28.804498 -31.1875 28.8125 C-30.43186768 28.81338623 -29.67623535 28.81427246 -28.89770508 28.81518555 C-20.90896627 28.98453684 -15.73362974 31.43347877 -9.4375 36.1875 C-9.44273682 35.13248291 -9.44797363 34.07746582 -9.45336914 32.99047852 C-9.47141901 29.0899337 -9.48293195 25.1893926 -9.49243164 21.28881836 C-9.4974719 19.59805684 -9.50430405 17.90729971 -9.51293945 16.21655273 C-9.52501857 13.79149293 -9.53073123 11.36649056 -9.53515625 8.94140625 C-9.54031754 8.18098526 -9.54547882 7.42056427 -9.55079651 6.63710022 C-9.55099238 4.8201743 -9.49947277 3.00336873 -9.4375 1.1875 C-7.33618615 -0.91381385 -2.89603678 0.00235259 0 0 Z " fill="#FAFCFE" transform="translate(415.4375,638.8125)"/>
<path d="M0 0 C0.78955078 -0.01224609 1.57910156 -0.02449219 2.39257812 -0.03710938 C4.45057435 -0.04237279 6.50812009 0.06543715 8.5625 0.1875 C10.5625 2.1875 10.5625 2.1875 10.81138897 3.99253941 C10.8108442 4.72683139 10.81029943 5.46112337 10.80973816 6.21766663 C10.81393265 7.0603862 10.81812714 7.90310577 10.82244873 8.7713623 C10.81682922 9.69767456 10.81120972 10.62398682 10.80541992 11.57836914 C10.80731827 12.55241196 10.80921661 13.52645477 10.81117249 14.53001404 C10.81488788 17.76097573 10.8041659 20.99171441 10.79296875 24.22265625 C10.79177736 26.45942661 10.7913237 28.69619748 10.7915802 30.93296814 C10.79001406 35.62469608 10.78171385 40.31634786 10.76831055 45.00805664 C10.75131074 51.03667533 10.7474964 57.06521029 10.74825573 63.09385014 C10.74798445 67.71334133 10.74251026 72.33281405 10.73525429 76.95229912 C10.7320614 79.17596738 10.73009877 81.39963775 10.72936058 83.62330818 C10.72720412 86.7242506 10.71847528 89.8251023 10.70776367 92.92602539 C10.70821686 93.85436188 10.70867004 94.78269836 10.70913696 95.73916626 C10.67697382 102.07302618 10.67697382 102.07302618 9.5625 103.1875 C6.69982433 103.26075168 3.861781 103.27988205 1 103.25 C0.19369141 103.24548828 -0.61261719 103.24097656 -1.44335938 103.23632812 C-3.44143756 103.22450518 -5.43947783 103.20656914 -7.4375 103.1875 C-8.0975 101.2075 -8.7575 99.2275 -9.4375 97.1875 C-10.00597656 97.59742188 -10.57445312 98.00734375 -11.16015625 98.4296875 C-19.02418214 103.91743846 -25.8338164 106.10073372 -35.4375 105.1875 C-44.08794033 103.61208868 -50.27423516 98.6294541 -55.25 91.5 C-62.06346485 79.41530727 -62.4698013 63.23796619 -58.8125 50.0625 C-55.40313093 40.61842887 -50.20984588 35.01646754 -41.4375 30.1875 C-34.22146177 27.78215392 -24.11090807 27.95636897 -17.125 31.0625 C-14.77477048 32.30918363 -12.65811982 33.70708679 -10.4375 35.1875 C-10.39991577 33.65041382 -10.39991577 33.65041382 -10.36157227 32.08227539 C-10.26765516 28.29340324 -10.16739683 24.50472119 -10.06518555 20.71606445 C-10.02177703 19.07385697 -9.98010642 17.43160261 -9.94018555 15.78930664 C-9.8826256 13.43361255 -9.81889108 11.07815572 -9.75390625 8.72265625 C-9.72883751 7.61483543 -9.72883751 7.61483543 -9.70326233 6.4846344 C-9.47853972 -1.18401763 -6.89464598 0.00560085 0 0 Z " fill="#FCFDFE" transform="translate(729.4375,638.8125)"/>
<path d="M0 0 C1.19012695 0.00580078 1.19012695 0.00580078 2.40429688 0.01171875 C3.19384766 0.00785156 3.98339844 0.00398437 4.796875 0 C10.71353554 0.01008808 10.71353554 0.01008808 12.96679688 1.13671875 C12.98991777 14.28820899 13.00771066 27.43969444 13.01860905 40.59120083 C13.02383843 46.69728244 13.03093708 52.80335019 13.04223633 58.90942383 C13.05306324 64.79677022 13.05907329 70.68410324 13.06167412 76.57145882 C13.06352872 78.82304152 13.06715 81.07462344 13.07252693 83.32620049 C13.07973476 86.46805302 13.08078793 89.60984958 13.08032227 92.75170898 C13.08391754 93.6925383 13.08751282 94.63336761 13.09121704 95.60270691 C13.08084904 102.02266659 13.08084904 102.02266659 11.96679688 103.13671875 C9.10412121 103.20997043 6.26607788 103.2291008 3.40429688 103.19921875 C2.59798828 103.19470703 1.79167969 103.19019531 0.9609375 103.18554688 C-1.03714069 103.17372393 -3.03518095 103.15578789 -5.03320312 103.13671875 C-6.02320313 101.15671875 -7.01320313 99.17671875 -8.03320312 97.13671875 C-8.45730469 97.54664063 -8.88140625 97.9565625 -9.31835938 98.37890625 C-15.9311611 104.45396366 -22.09743353 105.63386948 -30.97070312 105.4453125 C-38.40029157 104.69666775 -44.46910346 101.78529291 -49.50195312 96.25390625 C-52.42938033 92.20629007 -54.29405423 87.79709429 -56.03320312 83.13671875 C-56.28070312 82.47929688 -56.52820313 81.821875 -56.78320312 81.14453125 C-60.35297204 69.5923624 -58.51787765 55.16992482 -53.77929688 44.24609375 C-49.75392843 36.91926508 -44.08690314 31.67214283 -36.03320312 29.13671875 C-33.37958013 28.92140898 -30.87027008 28.80316341 -28.22070312 28.82421875 C-27.15275513 28.83050293 -27.15275513 28.83050293 -26.06323242 28.83691406 C-17.96536822 29.01128108 -13.27580896 30.9894935 -7.03320312 36.13671875 C-7.03843994 35.08170166 -7.04367676 34.02668457 -7.04907227 32.93969727 C-7.06712213 29.03915245 -7.07863507 25.13861135 -7.08813477 21.23803711 C-7.09317502 19.54727559 -7.10000717 17.85651846 -7.10864258 16.16577148 C-7.12072169 13.74071168 -7.12643435 11.31570931 -7.13085938 8.890625 C-7.13602066 8.13020401 -7.14118195 7.36978302 -7.14649963 6.58631897 C-7.1466955 4.76939305 -7.09517589 2.95258748 -7.03320312 1.13671875 C-5.15686053 -0.73962384 -2.49237813 0.00425684 0 0 Z " fill="#FCFDFE" transform="translate(806.033203125,638.86328125)"/>
<path d="M0 0 C4.83486788 4.26042813 8.6901115 9.32555749 9.97265625 15.73828125 C9.68174176 17.41287304 9.35403064 19.08194721 8.97265625 20.73828125 C6.05444162 20.87338378 3.14247973 20.97241175 0.22265625 21.05078125 C-0.60234375 21.09267578 -1.42734375 21.13457031 -2.27734375 21.17773438 C-4.62483157 21.22506276 -6.7242322 21.2016507 -9.02734375 20.73828125 C-11.41796875 18.36328125 -11.41796875 18.36328125 -13.02734375 15.73828125 C-18.32239777 11.65667711 -22.62689869 11.12356089 -29.2734375 11.33984375 C-32.84505003 11.85658769 -34.69291313 13.00136259 -37.02734375 15.73828125 C-38.41728455 18.51816285 -38.21222579 20.65691385 -38.02734375 23.73828125 C-36.67077036 27.61313452 -34.77585068 28.76982246 -31.15234375 30.55078125 C-24.71000292 33.63936111 -18.03463304 35.9382361 -11.23486328 38.11450195 C-2.65765391 40.94167886 5.02594026 44.91140496 9.97265625 52.73828125 C13.19783208 60.32054558 12.87736617 68.93187114 10 76.54296875 C5.84278298 85.42645151 -0.62165706 90.18563918 -9.625 93.7734375 C-21.56568249 97.55436053 -33.56482402 96.59706586 -45.02734375 91.73828125 C-53.75374064 87.19164503 -59.58204812 81.32677185 -62.6796875 71.94921875 C-63.0940098 69.3143151 -62.68068034 67.30656991 -62.02734375 64.73828125 C-44.82532026 63.51199839 -44.82532026 63.51199839 -40.5703125 66.4140625 C-39.08984375 68.55078125 -39.08984375 68.55078125 -38.0625 70.6953125 C-36.26519141 74.2424536 -33.70925075 75.51097892 -30.02734375 76.73828125 C-23.34060193 77.29196051 -17.90082194 77.11240702 -12.02734375 73.73828125 C-9.88443356 70.52391596 -9.72708584 68.56401516 -9.56640625 64.7734375 C-10.25761587 61.72157131 -11.5826571 60.67138012 -14.02734375 58.73828125 C-16.53714221 57.6077414 -18.93964908 56.63708751 -21.52734375 55.73828125 C-22.23640869 55.48119385 -22.94547363 55.22410645 -23.67602539 54.95922852 C-27.91017966 53.43657342 -32.176608 52.03896559 -36.46484375 50.67578125 C-46.70318575 47.28615378 -53.17748669 42.89805255 -58.90234375 33.73828125 C-61.63665649 26.50135771 -61.29852834 16.75978623 -58.33984375 9.67578125 C-54.00214853 1.6480328 -48.45928248 -2.94141188 -39.9375 -6.015625 C-26.76420289 -9.52359797 -11.14707266 -8.15294062 0 0 Z " fill="#FCFDFE" transform="translate(202.02734375,648.26171875)"/>
<path d="M0 0 C6.27 0 12.54 0 19 0 C21.77125666 5.54251332 24.06107528 10.62746526 25.9453125 16.4453125 C26.2012619 17.2188205 26.4572113 17.99232849 26.72091675 18.78927612 C27.52800201 21.23267593 28.32666204 23.67873001 29.125 26.125 C29.6674065 27.77232065 30.21037076 29.41945776 30.75390625 31.06640625 C31.75101091 34.09018924 32.74490589 37.11498307 33.73486328 40.14111328 C34.81164938 43.43130993 35.90176545 46.71689062 37 50 C37.49306641 48.19595703 37.49306641 48.19595703 37.99609375 46.35546875 C40.9835325 35.58547346 44.24275317 24.92506136 47.75 14.3125 C48.13857178 13.12487061 48.52714355 11.93724121 48.92749023 10.71362305 C49.29688721 9.60801025 49.66628418 8.50239746 50.046875 7.36328125 C50.37526367 6.37626221 50.70365234 5.38924316 51.04199219 4.37231445 C52 2 52 2 54 0 C56.7122125 -0.22504349 59.28873185 -0.32434995 62 -0.3125 C62.73734375 -0.32861328 63.4746875 -0.34472656 64.234375 -0.36132812 C66.375 -0.36328125 66.375 -0.36328125 70 0 C72 3 72 3 71.53125 5.3996582 C71.1909375 6.35702881 70.850625 7.31439941 70.5 8.30078125 C70.11432861 9.40462158 69.72865723 10.50846191 69.33129883 11.64575195 C68.89197021 12.85577881 68.4526416 14.06580566 68 15.3125 C67.5469024 16.58717559 67.09469344 17.86216737 66.64331055 19.13745117 C65.38922302 22.66466838 64.11473903 26.184204 62.8348999 29.70214844 C61.97183812 32.07750849 61.1136374 34.45458235 60.25634766 36.83203125 C58.45274596 41.82955841 56.63471127 46.82173303 54.8125 51.8125 C54.52544189 52.60194 54.23838379 53.39138 53.94262695 54.20474243 C50.92011806 62.49818827 47.78661739 70.71786077 44.26171875 78.8125 C43.97931839 79.46213211 43.69691803 80.11176422 43.40596008 80.78108215 C39.57255349 89.42460525 35.26152222 97.11964672 26.12890625 100.7421875 C20.94169106 102.26599719 15.36391894 102.64786232 10 102 C9.01 101.34 8.02 100.68 7 100 C6.671875 97.03125 6.671875 97.03125 6.75 93.5 C6.76546875 92.3346875 6.7809375 91.169375 6.796875 89.96875 C7 87 7 87 8 85 C10.74716664 84.64127907 13.4709277 84.55594291 16.23828125 84.44140625 C19.35884725 83.94264535 20.7447107 83.18303747 23 81 C25.37108705 73.88673886 23.71222928 68.07848681 21.0703125 61.3828125 C20.76398895 60.5757486 20.45766541 59.76868469 20.14205933 58.93716431 C19.14850458 56.32828225 18.13672954 53.72688053 17.125 51.125 C16.43880001 49.32894824 15.75391123 47.532395 15.0703125 45.73535156 C12.25589092 38.35517946 9.39916179 30.99185643 6.49923706 23.64486694 C5.77033758 21.7978926 5.04500866 19.94951037 4.31982422 18.10107422 C3.46024436 15.91857458 2.5899925 13.74023842 1.70751953 11.56689453 C1.32966309 10.61153809 0.95180664 9.65618164 0.5625 8.671875 C0.23378906 7.8581543 -0.09492187 7.04443359 -0.43359375 6.20605469 C-1 4 -1 4 0 0 Z " fill="#FBFDFE" transform="translate(826,669)"/>
<path d="M0 0 C2.91889148 -0.16216064 5.82879225 -0.28091202 8.75 -0.375 C9.9875 -0.45041016 9.9875 -0.45041016 11.25 -0.52734375 C12.44882812 -0.55634766 12.44882812 -0.55634766 13.671875 -0.5859375 C14.77160645 -0.63306885 14.77160645 -0.63306885 15.89355469 -0.68115234 C18.61015154 0.19730213 19.60631624 1.67793969 21.04705811 4.08096313 C22.91324301 7.83909115 24.17043167 11.78626864 25.453125 15.7734375 C25.75820984 16.6971817 26.06329468 17.6209259 26.37762451 18.57266235 C27.34361979 21.50405141 28.2969684 24.43937387 29.25 27.375 C29.90541727 29.37136733 30.56165861 31.36746432 31.21875 33.36328125 C32.82205536 38.23910997 34.41403682 43.11850421 36 48 C38.1493969 43.19491763 39.89849746 38.39951318 41.375 33.34375 C41.58560059 32.63778687 41.79620117 31.93182373 42.01318359 31.20446777 C42.67941943 28.97079978 43.34038478 26.73563136 44 24.5 C44.87020098 21.55063112 45.74593868 18.60298864 46.625 15.65625 C46.81884277 14.99250366 47.01268555 14.32875732 47.21240234 13.64489746 C48.52211053 9.25693143 50.02511192 5.12479931 52 1 C55.18824568 -0.59412284 58.62896662 -0.10174735 62.125 -0.0625 C62.87910156 -0.05798828 63.63320313 -0.05347656 64.41015625 -0.04882812 C66.27347127 -0.03703499 68.13674555 -0.01909942 70 0 C71.0094606 3.1146095 70.99193126 4.87981051 69.91113281 7.95703125 C69.64584274 8.72823303 69.38055267 9.49943481 69.10722351 10.29400635 C68.65969475 11.54066071 68.65969475 11.54066071 68.203125 12.8125 C67.89852859 13.68598083 67.59393219 14.55946167 67.28010559 15.45941162 C66.28163873 18.31050015 65.26679882 21.15540232 64.25 24 C63.55636286 25.95989145 62.86292298 27.91985271 62.16967773 29.87988281 C40.347755 91.32604921 40.347755 91.32604921 27.625 99.4375 C21.35323563 102.32743064 13.7306495 101.2940575 7 101 C6.97314905 98.52076199 6.95323453 96.0418116 6.9375 93.5625 C6.92912109 92.85544922 6.92074219 92.14839844 6.91210938 91.41992188 C6.90346412 89.61306441 6.94779989 87.80612397 7 86 C8.69065502 84.30934498 11.00031194 84.83575002 13.3125 84.75 C17.86288503 84.38230206 17.86288503 84.38230206 21.625 81.875 C23.87076865 77.17930191 24.36287529 73.42655767 23.07299805 68.35571289 C22.5896451 67.03447248 22.08896874 65.71948384 21.57421875 64.41015625 C21.30332932 63.68401627 21.03243988 62.95787628 20.75334167 62.20973206 C19.85035805 59.80061835 18.92512708 57.40068798 18 55 C17.34832024 53.27251968 16.69812504 51.54447868 16.04931641 49.81591797 C13.99130601 44.34838194 11.90342173 38.89251658 9.8125 33.4375 C8.74197469 30.63835344 7.67205358 27.83897652 6.60221863 25.03956604 C5.94383933 23.31746386 5.28495119 21.59555609 4.6254425 19.87388611 C4.03134677 18.32237364 3.43919486 16.77011503 2.84927368 15.2170105 C2.27668658 13.7222843 1.6932321 12.23168164 1.09970093 10.74514771 C-0.48361432 6.72006428 -1.44438911 4.20185923 0 0 Z " fill="#FBFDFE" transform="translate(434,669)"/>
<path d="M0 0 C0.73734375 0.00773438 1.4746875 0.01546875 2.234375 0.0234375 C3.34039063 0.01183594 3.34039063 0.01183594 4.46875 0 C9.9810554 0.0201179 9.9810554 0.0201179 12.234375 2.2734375 C12.47920227 4.37849426 12.47920227 4.37849426 12.47387695 7.01098633 C12.47760818 7.99573441 12.48133942 8.98048248 12.48518372 9.99507141 C12.48104965 11.06275253 12.47691559 12.13043365 12.47265625 13.23046875 C12.48807717 15.47982373 12.50438089 17.72917281 12.52148438 19.97851562 C12.53794262 23.5337422 12.54686983 27.08853728 12.53979492 30.64379883 C12.53717752 34.06902179 12.56528329 37.49292216 12.59765625 40.91796875 C12.58744949 41.97957718 12.57724274 43.04118561 12.56672668 44.13496399 C12.62766469 50.23472319 12.62766469 50.23472319 15.61791992 55.44604492 C19.79270563 58.36181156 23.33836307 57.99937008 28.234375 57.2734375 C31.91515228 55.86377812 32.93445907 54.76615652 34.984375 51.3984375 C37.34642885 45.49330287 37.41980401 39.91306825 37.515625 33.6328125 C37.53403442 32.71002502 37.55244385 31.78723755 37.57141113 30.83648682 C37.64995989 26.89729165 37.71812682 22.95793568 37.78662109 19.01855469 C37.83817797 16.1398835 37.89545928 13.26136672 37.953125 10.3828125 C37.96670044 9.48496033 37.98027588 8.58710815 37.9942627 7.66204834 C38.12148464 1.38632786 38.12148464 1.38632786 39.234375 0.2734375 C41.89090943 0.17341295 44.51566772 0.13466287 47.171875 0.1484375 C47.91373047 0.14457031 48.65558594 0.14070312 49.41992188 0.13671875 C54.98110498 0.14680249 54.98110498 0.14680249 57.234375 1.2734375 C57.25750024 10.51341302 57.27529101 19.75337864 57.28618717 28.99337673 C57.29141561 33.28343665 57.29851253 37.57347683 57.30981445 41.86352539 C57.32064475 46.0002315 57.32665214 50.13691858 57.32925224 54.27363777 C57.33110624 55.85536054 57.33472636 57.43708221 57.34010506 59.01879692 C57.3473174 61.22666588 57.34836586 63.43445523 57.34790039 65.64233398 C57.350121 66.90142075 57.35234161 68.16050751 57.35462952 69.45774841 C57.234375 72.2734375 57.234375 72.2734375 56.234375 73.2734375 C53.37169933 73.34668918 50.533656 73.36581955 47.671875 73.3359375 C46.86556641 73.33142578 46.05925781 73.32691406 45.22851562 73.32226562 C43.23043744 73.31044268 41.23239717 73.29250664 39.234375 73.2734375 C38.574375 70.9634375 37.914375 68.6534375 37.234375 66.2734375 C36.38875 67.0365625 35.543125 67.7996875 34.671875 68.5859375 C26.78086046 74.98602302 19.22132015 75.22663834 9.234375 74.2734375 C2.94425123 72.64768243 -1.25956141 68.61284035 -4.765625 63.2734375 C-8.03308293 56.37468804 -8.19270179 49.60359073 -8.12890625 42.08984375 C-8.12965401 40.38476906 -8.12965401 40.38476906 -8.13041687 38.64524841 C-8.12808863 36.25933063 -8.11843454 33.87340981 -8.10180664 31.48754883 C-8.07804018 27.82285884 -8.08127688 24.158889 -8.08789062 20.49414062 C-8.08231904 18.17187064 -8.07521245 15.84960372 -8.06640625 13.52734375 C-8.06731766 12.42846329 -8.06822906 11.32958282 -8.06916809 10.19740295 C-8.05963608 9.18552414 -8.05010406 8.17364532 -8.0402832 7.13110352 C-8.03567581 6.23891617 -8.03106842 5.34672882 -8.02632141 4.42750549 C-7.43727184 -0.43966095 -4.14087825 0.01511269 0 0 Z " fill="#FCFDFE" transform="translate(602.765625,668.7265625)"/>
<path d="M0 0 C0.73734375 0.00773438 1.4746875 0.01546875 2.234375 0.0234375 C3.34039062 0.01183594 3.34039062 0.01183594 4.46875 0 C9.9810554 0.0201179 9.9810554 0.0201179 12.234375 2.2734375 C12.45469666 4.21318054 12.45469666 4.21318054 12.41381836 6.61206055 C12.40398422 7.51027023 12.39415009 8.40847992 12.38401794 9.33390808 C12.35441734 10.79477592 12.35441734 10.79477592 12.32421875 12.28515625 C12.30378512 14.34309648 12.28361113 16.4010393 12.26367188 18.45898438 C12.22027701 21.70673438 12.17198526 24.9543142 12.11791992 28.2019043 C12.06945014 31.33381595 12.03969293 34.46550405 12.01171875 37.59765625 C11.98996078 38.56144699 11.96820282 39.52523773 11.94578552 40.51823425 C11.90405557 46.22611835 12.4014441 50.26673322 15.234375 55.2734375 C19.49682419 58.1150703 23.23404588 57.77747067 28.234375 57.2734375 C31.91515228 55.86377812 32.93445907 54.76615652 34.984375 51.3984375 C37.34642885 45.49330287 37.41980401 39.91306825 37.515625 33.6328125 C37.53403442 32.71002502 37.55244385 31.78723755 37.57141113 30.83648682 C37.64995989 26.89729165 37.71812682 22.95793568 37.78662109 19.01855469 C37.83817797 16.1398835 37.89545928 13.26136672 37.953125 10.3828125 C37.96670044 9.48496033 37.98027588 8.58710815 37.9942627 7.66204834 C38.12148464 1.38632786 38.12148464 1.38632786 39.234375 0.2734375 C41.89260157 0.14685528 44.51324924 0.08823536 47.171875 0.0859375 C48.2846582 0.06756836 48.2846582 0.06756836 49.41992188 0.04882812 C51.35951129 0.04355272 53.2986121 0.15154848 55.234375 0.2734375 C57.234375 2.2734375 57.234375 2.2734375 57.48161316 5.16468811 C57.48018814 6.40077316 57.47876312 7.63685822 57.47729492 8.91040039 C57.47919327 9.59183609 57.48109161 10.27327179 57.48304749 10.97535706 C57.48675845 13.23238555 57.47604769 15.48909375 57.46484375 17.74609375 C57.46365213 19.31025657 57.46319875 20.87442012 57.4634552 22.43858337 C57.46188984 25.71797153 57.45359551 28.99725061 57.44018555 32.27661133 C57.42318159 36.48921422 57.41937157 40.70169729 57.42013073 44.91433048 C57.41985939 48.14413099 57.41438429 51.37390508 57.40712929 54.60369682 C57.40393782 56.15750364 57.4019741 57.71131345 57.40123558 59.26512337 C57.39907785 61.43209101 57.39034647 63.59892912 57.37963867 65.76586914 C57.37582687 67.0011586 57.37201508 68.23644806 57.36808777 69.50917053 C57.234375 72.2734375 57.234375 72.2734375 56.234375 73.2734375 C53.37169933 73.34668918 50.533656 73.36581955 47.671875 73.3359375 C46.86556641 73.33142578 46.05925781 73.32691406 45.22851562 73.32226562 C43.23043744 73.31044268 41.23239717 73.29250664 39.234375 73.2734375 C38.574375 70.9634375 37.914375 68.6534375 37.234375 66.2734375 C36.71488281 66.68335938 36.19539063 67.09328125 35.66015625 67.515625 C34.96277344 68.05445313 34.26539063 68.59328125 33.546875 69.1484375 C32.86238281 69.68210937 32.17789063 70.21578125 31.47265625 70.765625 C24.62835969 75.37626806 17.16749329 74.94015702 9.234375 74.2734375 C3.10236181 72.70281449 -1.49714349 68.63413283 -4.765625 63.2734375 C-7.94694912 56.40795086 -8.19107225 50.47306018 -8.12890625 42.96875 C-8.12940475 41.80842255 -8.12990326 40.64809509 -8.13041687 39.4526062 C-8.12808606 37.013634 -8.11841656 34.57465894 -8.10180664 32.13574219 C-8.07807 28.38975769 -8.08127131 24.64447883 -8.08789062 20.8984375 C-8.08231823 18.5260374 -8.07521112 16.1536403 -8.06640625 13.78125 C-8.06731766 12.6573587 -8.06822906 11.53346741 -8.06916809 10.3755188 C-8.05963608 9.34039154 -8.05010406 8.30526428 -8.0402832 7.23876953 C-8.03567581 6.32580109 -8.03106842 5.41283264 -8.02632141 4.47219849 C-7.44534692 -0.42784614 -4.18087411 0.01525866 0 0 Z " fill="#FDFEFE" transform="translate(285.765625,668.7265625)"/>
<path d="M0 0 C0.68578125 -0.01224609 1.3715625 -0.02449219 2.078125 -0.03710938 C5.81796797 -0.04802331 7.4349737 0.0608158 10.625 2.1875 C10.8458564 5.13814148 10.90560989 7.87118231 10.8125 10.8125 C10.79219727 12.01519531 10.79219727 12.01519531 10.77148438 13.2421875 C10.73609051 15.22424378 10.68228234 17.20595551 10.625 19.1875 C11.75679687 19.16429687 12.88859375 19.14109375 14.0546875 19.1171875 C15.53645175 19.09843099 17.01822312 19.08023066 18.5 19.0625 C19.24636719 19.04574219 19.99273437 19.02898438 20.76171875 19.01171875 C22.71694461 18.9941041 24.67242021 19.08429811 26.625 19.1875 C28.625 21.1875 28.625 21.1875 28.890625 23.9375 C28.88546875 25.01 28.8803125 26.0825 28.875 27.1875 C28.88273437 28.79625 28.88273437 28.79625 28.890625 30.4375 C28.625 33.1875 28.625 33.1875 26.625 35.1875 C24.04435871 35.33247985 21.57556116 35.37427545 19 35.3125 C18.29359375 35.30347656 17.5871875 35.29445313 16.859375 35.28515625 C15.11443902 35.26157603 13.36967705 35.22570461 11.625 35.1875 C11.71864965 40.24153538 11.82476907 45.29509821 11.94238281 50.34863281 C11.98063327 52.06731011 12.01549303 53.78606638 12.046875 55.50488281 C12.09261128 57.9775004 12.15059084 60.44957613 12.2109375 62.921875 C12.22248871 63.68868591 12.23403992 64.45549683 12.24594116 65.24554443 C12.37961827 70.52959548 12.37961827 70.52959548 14.625 75.1875 C19.00936379 77.37968189 24.99401402 76.34524649 29.625 75.1875 C31.92283606 78.63425409 31.92254883 80.12078112 31.9375 84.1875 C31.95425781 85.239375 31.97101563 86.29125 31.98828125 87.375 C31.625 90.1875 31.625 90.1875 30.41796875 92 C24.75296275 95.75198654 16.08046225 94.69381076 9.625 94.1875 C2.69773431 92.50594738 -2.52251216 89.63947263 -6.44378662 83.51940918 C-9.49606265 77.99760835 -9.91234359 73.45421847 -9.765625 67.21875 C-9.75996521 66.29783569 -9.75430542 65.37692139 -9.74847412 64.42810059 C-9.72625236 61.51401693 -9.67608383 58.60120603 -9.625 55.6875 C-9.6049166 53.70053871 -9.58666906 51.71355796 -9.5703125 49.7265625 C-9.5264343 44.87972501 -9.45750689 40.03382758 -9.375 35.1875 C-10.01308594 35.19910156 -10.65117187 35.21070313 -11.30859375 35.22265625 C-12.13488281 35.23167969 -12.96117187 35.24070312 -13.8125 35.25 C-14.63621094 35.26160156 -15.45992187 35.27320313 -16.30859375 35.28515625 C-18.375 35.1875 -18.375 35.1875 -19.375 34.1875 C-19.47409302 31.85589945 -19.50470504 29.52120058 -19.5 27.1875 C-19.50257813 25.90875 -19.50515625 24.63 -19.5078125 23.3125 C-19.375 20.1875 -19.375 20.1875 -18.375 19.1875 C-16.68891034 19.11544489 -14.99999341 19.10363932 -13.3125 19.125 C-12.39339844 19.13402344 -11.47429687 19.14304687 -10.52734375 19.15234375 C-9.81707031 19.16394531 -9.10679687 19.17554688 -8.375 19.1875 C-8.38660156 17.89972656 -8.39820313 16.61195313 -8.41015625 15.28515625 C-8.4195327 13.60677228 -8.42863305 11.92838674 -8.4375 10.25 C-8.44587891 9.39986328 -8.45425781 8.54972656 -8.46289062 7.67382812 C-8.46611328 6.86494141 -8.46933594 6.05605469 -8.47265625 5.22265625 C-8.47789307 4.4737915 -8.48312988 3.72492676 -8.48852539 2.95336914 C-8.20671328 -1.43017278 -3.35821536 0.00312102 0 0 Z " fill="#FBFDFE" transform="translate(239.375,649.8125)"/>
<path d="M0 0 C4.79363135 2.47946449 7.2382561 5.73847868 8.9375 10.8125 C11.12833737 19.84632323 10.68997996 29.15803607 6.125 37.375 C3.51603272 40.59784193 1.59924644 42.68406923 -2.55078125 43.50390625 C-7.371033 43.60617467 -11.07243932 43.57725873 -15 40.5625 C-20.41597698 34.96469166 -21.17512954 28.61384974 -21.4375 21.0625 C-21.25569309 13.41834576 -19.95886997 6.95886997 -14.4375 1.4375 C-9.50265175 -1.47279512 -5.42885616 -1.42484929 0 0 Z " fill="#017FDB" transform="translate(396,684)"/>
<path d="M0 0 C4.35250725 2.3213372 6.45266703 5.6388654 8.2734375 10.109375 C10.42767878 18.68001234 10.50411308 30.19516284 6 38 C3.16608804 41.47154216 1.75348684 42.65617905 -2.58984375 43.5078125 C-7.44408348 43.81411569 -11.08342931 43.5351344 -15 40.5 C-20.99873593 34.25671128 -21.52860103 27.30997342 -21.49023438 19.01318359 C-21.22168636 12.02602267 -19.50448022 6.40012845 -14.42578125 1.47265625 C-9.7911927 -1.73590506 -5.17270137 -1.48069794 0 0 Z " fill="#027FDB" transform="translate(790,684)"/>
<path d="M0 0 C4.90224184 2.49736849 7.01740571 4.88699368 9 10 C11.12064401 18.73468055 11.28447991 28.90334506 7 37 C2.06887998 42.77301856 2.06887998 42.77301856 -2.171875 43.23828125 C-6.41651164 43.36047534 -9.42409137 43.24529442 -13.375 41.5625 C-19.54460587 35.53978951 -20.37243287 29.26678338 -20.5 20.9375 C-20.51853027 20.18194824 -20.53706055 19.42639648 -20.55615234 18.64794922 C-20.49379593 13.02486799 -19.11259699 8.70354088 -16 4 C-10.92665664 -0.8258632 -6.75740878 -1.6381597 0 0 Z " fill="#027FDB" transform="translate(710,684)"/>
<path d="M0 0 C2.97 -0.0825 5.94 -0.165 9 -0.25 C10.37865234 -0.30462402 10.37865234 -0.30462402 11.78515625 -0.36035156 C17.71231008 -0.43914306 22.09063981 0.59497857 27 4 C29.84541585 6.81154185 30.45060818 8.91130636 30.5 12.875 C30.38255868 16.34207197 30.0527138 18.65211945 27.9375 21.4375 C21.7925459 26.79799188 16.40539684 27.432027 8.5625 27.1875 C5.736875 27.125625 2.91125 27.06375 0 27 C0 18.09 0 9.18 0 0 Z " fill="#0181DC" transform="translate(533,699)"/>
<path d="M0 0 C4.15335991 2.53425351 7.13929924 5.4699762 9 10 C9.69043987 15.91805605 8.91375528 19.40570326 5.48046875 24.30078125 C2.78972374 27.38910336 0.08741549 28.70717618 -3.94921875 29.2734375 C-8.66079992 29.50677295 -12.02952706 28.70714064 -16 26 C-20.01052719 21.44750967 -21.25746023 16.96449526 -21 11 C-19.27420059 5.72108416 -16.36222715 3.18079063 -12 0 C-7.7836445 -1.40545183 -4.27887726 -1.16374108 0 0 Z " fill="#027FDB" transform="translate(701,362)"/>
<path d="M0 0 C4.36003393 2.25971651 7.02806746 4.77859445 9.12890625 9.31640625 C9.91856643 14.31487379 9.71003677 18.10944286 7.50390625 22.69140625 C3.63770048 26.96458105 0.48269142 29.52125742 -5.37109375 29.81640625 C-11.22487892 29.52125742 -14.37988798 26.96458105 -18.24609375 22.69140625 C-20.44644388 18.12144828 -20.68198908 14.30341253 -19.87109375 9.31640625 C-15.92529054 1.56572138 -8.89809924 -3.25087133 0 0 Z " fill="#017FDB" transform="translate(651.87109375,361.68359375)"/>
<path d="M0 0 C4.88916584 2.44458292 7.23743809 4.81023437 9 10 C9.68349921 14.70011182 9.48352818 18.01434639 7.375 22.3125 C4.26023336 25.83710435 1.61173611 28.54048449 -3.17578125 29.3828125 C-9.94158999 29.72394571 -13.34179728 27.30843921 -18.375 22.9375 C-20.88687962 18.39679453 -20.74446918 14.06983511 -20 9 C-15.54328483 0.08656967 -9.32305532 -2.03991638 0 0 Z " fill="#027FDA" transform="translate(604,362)"/>
<path d="M0 0 C2.495625 -0.061875 4.99125 -0.12375 7.5625 -0.1875 C8.33408447 -0.21481201 9.10566895 -0.24212402 9.90063477 -0.27026367 C15.00863253 -0.33080194 18.47302283 0.6007021 23 3 C25.89225225 6.18889351 27.24777252 8.7446783 27.5 13 C27.24777252 17.2553217 25.89225225 19.81110649 23 23 C17.66867683 25.82560128 13.5270451 26.39862883 7.5625 26.1875 C5.066875 26.125625 2.57125 26.06375 0 26 C0 17.42 0 8.84 0 0 Z " fill="#017DDA" transform="translate(533,658)"/>
<path d="M0 0 C3.96 0 7.92 0 12 0 C12 0.66 12 1.32 12 2 C8.7 2 5.4 2 2 2 C2 9.92 2 17.84 2 26 C5.63 26 9.26 26 13 26 C13 26.33 13 26.66 13 27 C8.71 27 4.42 27 0 27 C0 18.09 0 9.18 0 0 Z " fill="#0067CF" transform="translate(533,699)"/>
<path d="M0 0 C0.66 0 1.32 0 2 0 C2 11.22 2 22.44 2 34 C-1.33333333 32.33333333 -4.66666667 30.66666667 -8 29 C-6.1875 28.375 -6.1875 28.375 -4 28 C-3.01 28.66 -2.02 29.32 -1 30 C-0.67 20.1 -0.34 10.2 0 0 Z " fill="#1E7AD5" transform="translate(404,641)"/>
<path d="M0 0 C2 2 2 2 4 7 C10.93 7.495 10.93 7.495 18 8 C18 8.33 18 8.66 18 9 C15.54159395 9.02691685 13.08348118 9.04679802 10.625 9.0625 C9.92632813 9.07087891 9.22765625 9.07925781 8.5078125 9.08789062 C3.2265625 9.11328125 3.2265625 9.11328125 1 8 C-0.125 5.9375 -0.125 5.9375 -1 4 C-1.70125 4.61875 -2.4025 5.2375 -3.125 5.875 C-8.41249452 9.78314812 -13.2744404 10.2755951 -19.75 10.25 C-21.06484375 10.25515625 -22.3796875 10.2603125 -23.734375 10.265625 C-27 10 -27 10 -29 8 C-28.01 8.03480469 -27.02 8.06960938 -26 8.10546875 C-15.31589028 8.3719965 -8.10262006 7.49492355 0 0 Z " fill="#0760CD" transform="translate(798,735)"/>
<path d="M0 0 C0.33 0 0.66 0 1 0 C1 11.55 1 23.1 1 35 C-0.65 34.01 -2.3 33.02 -4 32 C-3.34 31.67 -2.68 31.34 -2 31 C-0.64989403 24.62499632 -0.67254955 18.05526223 -0.4375 11.5625 C-0.39431641 10.44939453 -0.35113281 9.33628906 -0.30664062 8.18945312 C-0.20120112 5.45974156 -0.09907971 2.72994857 0 0 Z " fill="#0360C9" transform="translate(719,640)"/>
<path d="M0 0 C2 2 2 2 4 8 C8.95 8.33 13.9 8.66 19 9 C19 9.33 19 9.66 19 10 C16.39521117 10.0809313 13.79293347 10.14045434 11.1875 10.1875 C10.08051758 10.22520508 10.08051758 10.22520508 8.95117188 10.26367188 C3.44147497 10.33846414 3.44147497 10.33846414 1.125 8.5625 C0.568125 7.7890625 0.568125 7.7890625 0 7 C-2.09989652 5.82425289 -2.09989652 5.82425289 -4 5 C-2.68 3.35 -1.36 1.7 0 0 Z " fill="#005FCD" transform="translate(719,734)"/>
<path d="M0 0 C1.3534906 4.06047179 0.15966205 5.79888114 -1.375 9.75 C-3.25258499 14.59605736 -4.43459778 18.87193336 -5 24 C-5.99 24 -6.98 24 -8 24 C-7.3661521 18.482845 -5.49435691 13.73252191 -3.4375 8.625 C-2.9434668 7.37783203 -2.9434668 7.37783203 -2.43945312 6.10546875 C-1.63155238 4.06815382 -0.8182989 2.03315558 0 0 Z " fill="#0766CF" transform="translate(492,708)"/>
<path d="M0 0 C0 4.73662855 -2.97848657 7.51968843 -6 11 C-8.24164722 13.12531423 -10.5661269 15.09898669 -13 17 C-13.66 16.67 -14.32 16.34 -15 16 C-14.33613281 15.34773438 -13.67226563 14.69546875 -12.98828125 14.0234375 C-8.42649537 9.50826841 -3.97889622 5.03993521 0 0 Z " fill="#0464CE" transform="translate(748,457)"/>
<path d="M0 0 C0.33 0 0.66 0 1 0 C1.14515677 3.10367497 1.23400853 6.20648027 1.3125 9.3125 C1.35439453 10.19357422 1.39628906 11.07464844 1.43945312 11.98242188 C1.48579382 14.41994228 1.48611344 16.60970257 1 19 C-1.51953125 21.10546875 -1.51953125 21.10546875 -4 22 C-4.33 21.01 -4.66 20.02 -5 19 C-3.35 18.34 -1.7 17.68 0 17 C0 11.39 0 5.78 0 0 Z " fill="#1F85D9" transform="translate(572,237)"/>
<path d="M0 0 C0.60546875 1.8046875 0.60546875 1.8046875 1 4 C-1.08139861 7.85444186 -2.79030081 10.49653601 -7 12 C-5.61735163 9.13132769 -4.07851447 6.43975968 -2.375 3.75 C-1.92898438 3.04359375 -1.48296875 2.3371875 -1.0234375 1.609375 C-0.68570313 1.07828125 -0.34796875 0.5471875 0 0 Z " fill="#0770D3" transform="translate(756,445)"/>
<path d="M0 0 C1.48769673 4.4630902 -0.01171089 7.84335031 -2 12 C-4.6875 14.5625 -4.6875 14.5625 -7 16 C-5.35433477 10.31497465 -2.70967216 5.23318364 0 0 Z " fill="#0D69D0" transform="translate(479,742)"/>
<path d="M0 0 C0.66 0.66 1.32 1.32 2 2 C-1.3 2 -4.6 2 -8 2 C-8.33 2.99 -8.66 3.98 -9 5 C-9.66 4.67 -10.32 4.34 -11 4 C-10.67 3.01 -10.34 2.02 -10 1 C-6.47940432 -0.17353189 -3.693507 -0.20146402 0 0 Z " fill="#0C70D3" transform="translate(650,361)"/>
<path d="M0 0 C0.66 1.32 1.32 2.64 2 4 C1.01 5.485 1.01 5.485 0 7 C-1.32 6.34 -2.64 5.68 -4 5 C-2.68 3.35 -1.36 1.7 0 0 Z " fill="#086DD0" transform="translate(719,734)"/>
<path d="M0 0 C4.56454251 0.54339792 7.9728176 1.79463821 12 4 C8.17456525 5.27514492 6.66576992 4.52740413 3 3 C1.125 1.375 1.125 1.375 0 0 Z " fill="#0867D0" transform="translate(317,492)"/>
<path d="M0 0 C0.33 0 0.66 0 1 0 C1.33 3.63 1.66 7.26 2 11 C0.35 10.01 -1.3 9.02 -3 8 C-2.34 7.67 -1.68 7.34 -1 7 C-0.59270772 4.67843403 -0.25561323 2.3431213 0 0 Z " fill="#0669D0" transform="translate(718,664)"/>
</svg>
